<mxfile host="app.diagrams.net" modified="2023-09-05T02:55:33.419Z" agent="Mozilla/5.0 (Macintosh; Intel Mac OS X 10_15_7) AppleWebKit/537.36 (KHTML, like Gecko) Chrome/116.0.0.0 Safari/537.36" etag="XJOifLQFqA7_acBnKTE3" version="21.6.5" type="github">
  <diagram id="prtHgNgQTEPvFCAcTncT" name="Page-1">
    <mxGraphModel dx="1272" dy="679" grid="1" gridSize="10" guides="1" tooltips="1" connect="1" arrows="1" fold="1" page="1" pageScale="1" pageWidth="827" pageHeight="1169" math="0" shadow="0">
      <root>
        <mxCell id="0" />
        <mxCell id="1" parent="0" />
        <mxCell id="dNxyNK7c78bLwvsdeMH5-11" value="VidMeCreator" style="swimlane;html=1;startSize=20;horizontal=1;containerType=tree;glass=0;" parent="1" vertex="1">
          <mxGeometry x="70" y="60" width="757" height="510" as="geometry" />
        </mxCell>
        <mxCell id="QcBBM-sKMw9uH2ObEvdb-1" value="草稿" style="rounded=0;whiteSpace=wrap;html=1;" vertex="1" parent="dNxyNK7c78bLwvsdeMH5-11">
          <mxGeometry x="40" y="40" width="120" height="60" as="geometry" />
        </mxCell>
        <mxCell id="QcBBM-sKMw9uH2ObEvdb-7" value="剪辑" style="swimlane;html=1;startSize=20;horizontal=1;containerType=tree;glass=0;fillColor=#d5e8d4;strokeColor=#82b366;" vertex="1" parent="dNxyNK7c78bLwvsdeMH5-11">
          <mxGeometry x="160" y="120" width="530" height="100" as="geometry" />
        </mxCell>
        <mxCell id="QcBBM-sKMw9uH2ObEvdb-10" value="素材资源&lt;br&gt;" style="rounded=0;whiteSpace=wrap;html=1;movable=1;resizable=1;rotatable=1;deletable=1;editable=1;locked=0;connectable=1;" vertex="1" parent="QcBBM-sKMw9uH2ObEvdb-7">
          <mxGeometry x="10" y="30" width="120" height="60" as="geometry" />
        </mxCell>
        <mxCell id="QcBBM-sKMw9uH2ObEvdb-11" value="属性面板" style="rounded=0;whiteSpace=wrap;html=1;" vertex="1" parent="QcBBM-sKMw9uH2ObEvdb-7">
          <mxGeometry x="270" y="30" width="120" height="60" as="geometry" />
        </mxCell>
        <mxCell id="QcBBM-sKMw9uH2ObEvdb-12" value="播放器" style="rounded=0;whiteSpace=wrap;html=1;" vertex="1" parent="QcBBM-sKMw9uH2ObEvdb-7">
          <mxGeometry x="140" y="30" width="120" height="60" as="geometry" />
        </mxCell>
        <mxCell id="QcBBM-sKMw9uH2ObEvdb-13" value="时间轴" style="rounded=0;whiteSpace=wrap;html=1;" vertex="1" parent="QcBBM-sKMw9uH2ObEvdb-7">
          <mxGeometry x="400" y="30" width="120" height="60" as="geometry" />
        </mxCell>
        <mxCell id="QcBBM-sKMw9uH2ObEvdb-16" value="美容" style="swimlane;html=1;startSize=20;horizontal=1;containerType=tree;glass=0;fillColor=#ffe6cc;strokeColor=#d79b00;" vertex="1" parent="dNxyNK7c78bLwvsdeMH5-11">
          <mxGeometry x="160" y="260" width="530" height="100" as="geometry" />
        </mxCell>
        <mxCell id="QcBBM-sKMw9uH2ObEvdb-17" value="素材资源&lt;br&gt;" style="rounded=0;whiteSpace=wrap;html=1;movable=1;resizable=1;rotatable=1;deletable=1;editable=1;locked=0;connectable=1;" vertex="1" parent="QcBBM-sKMw9uH2ObEvdb-16">
          <mxGeometry x="10" y="30" width="120" height="60" as="geometry" />
        </mxCell>
        <mxCell id="QcBBM-sKMw9uH2ObEvdb-18" value="属性面板" style="rounded=0;whiteSpace=wrap;html=1;" vertex="1" parent="QcBBM-sKMw9uH2ObEvdb-16">
          <mxGeometry x="270" y="30" width="120" height="60" as="geometry" />
        </mxCell>
        <mxCell id="QcBBM-sKMw9uH2ObEvdb-19" value="播放器" style="rounded=0;whiteSpace=wrap;html=1;" vertex="1" parent="QcBBM-sKMw9uH2ObEvdb-16">
          <mxGeometry x="140" y="30" width="120" height="60" as="geometry" />
        </mxCell>
        <mxCell id="QcBBM-sKMw9uH2ObEvdb-20" value="时间轴" style="rounded=0;whiteSpace=wrap;html=1;" vertex="1" parent="QcBBM-sKMw9uH2ObEvdb-16">
          <mxGeometry x="400" y="30" width="120" height="60" as="geometry" />
        </mxCell>
        <mxCell id="QcBBM-sKMw9uH2ObEvdb-21" value="监控(日志、CPU)" style="rounded=0;whiteSpace=wrap;html=1;" vertex="1" parent="dNxyNK7c78bLwvsdeMH5-11">
          <mxGeometry x="560" y="380" width="120" height="60" as="geometry" />
        </mxCell>
        <mxCell id="QcBBM-sKMw9uH2ObEvdb-22" value="导出" style="rounded=0;whiteSpace=wrap;html=1;" vertex="1" parent="dNxyNK7c78bLwvsdeMH5-11">
          <mxGeometry x="420" y="380" width="120" height="60" as="geometry" />
        </mxCell>
        <mxCell id="QcBBM-sKMw9uH2ObEvdb-23" value="配方" style="rounded=0;whiteSpace=wrap;html=1;" vertex="1" parent="dNxyNK7c78bLwvsdeMH5-11">
          <mxGeometry x="283.5" y="380" width="120" height="60" as="geometry" />
        </mxCell>
      </root>
    </mxGraphModel>
  </diagram>
</mxfile>
